<svg width="29" height="20" viewBox="0 0 25 20" fill="none" xmlns="http://www.w3.org/2000/svg">
<path d="M0.970952 15.1649H9.58256V13.2216H4.7377V11.0388H8.01197V9.12211H4.7377V8.08393C4.7377 6.89933 5.17693 6.327 6.04208 6.327C6.84068 6.327 7.21337 6.79285 7.18675 7.75118H9.516C9.60918 5.70143 8.23824 4.38373 6.05539 4.38373C3.80599 4.38373 2.42175 5.75467 2.42175 8.00407V9.12211H0.771302V11.0388H2.42175V13.2216H0.970952V15.1649Z" fill="#000"/>
<path fill-rule="evenodd" clip-rule="evenodd" d="M16.6779 8.78973H20.7919V7.57971C20.7919 6.44366 19.871 5.52271 18.7349 5.52271C17.5989 5.52271 16.6779 6.44366 16.6779 7.57971V8.78973ZM15.1049 8.78973H13.8949V16.0498H23.5749V8.78973H22.3649V7.57971C22.3649 5.57492 20.7397 3.94971 18.7349 3.94971C16.7301 3.94971 15.1049 5.57492 15.1049 7.57971V8.78973Z" fill="#000"/>
</svg>
