<svg width="68" height="16" viewBox="0 0 68 16" fill="none" xmlns="http://www.w3.org/2000/svg">
	<rect width="68" height="16" rx="2" fill="#E8E8E8" />
	<path
		d="M5.10789 13.5H6.62289V9.36H8.18289C9.23289 9.36 9.98289 9.21 10.5379 8.895C11.4079 8.4 11.8729 7.56 11.8729 6.465C11.8729 5.46 11.5279 4.65 10.8529 4.11C10.2829 3.66 9.60789 3.495 8.28789 3.495H5.10789V13.5ZM6.62289 7.98V4.875H8.31789C9.83289 4.875 10.3579 5.28 10.3579 6.45C10.3579 7.545 9.77289 7.98 8.30289 7.98H6.62289ZM16.8489 3.36C14.3889 3.36 13.3089 6.255 13.3089 8.475C13.3089 10.74 14.3589 13.635 16.8489 13.635C19.3689 13.635 20.3889 10.8 20.3889 8.475C20.3889 6.285 19.2489 3.36 16.8489 3.36ZM16.8489 4.755C18.1239 4.755 18.8739 6.165 18.8739 8.55C18.8739 10.845 18.1089 12.24 16.8489 12.24C15.5889 12.24 14.8239 10.86 14.8239 8.55C14.8239 6.15 15.5589 4.755 16.8489 4.755ZM22.2899 13.5H23.8049V9.36H25.3649C26.4149 9.36 27.1649 9.21 27.7199 8.895C28.5899 8.4 29.0549 7.56 29.0549 6.465C29.0549 5.46 28.7099 4.65 28.0349 4.11C27.4649 3.66 26.7899 3.495 25.4699 3.495H22.2899V13.5ZM23.8049 7.98V4.875H25.4999C27.0149 4.875 27.5399 5.28 27.5399 6.45C27.5399 7.545 26.9549 7.98 25.4849 7.98H23.8049ZM30.6859 3.495V9.945C30.6859 10.995 30.8209 11.685 31.1209 12.225C31.6609 13.215 32.5609 13.635 34.0609 13.635C35.3959 13.635 36.2209 13.305 36.8059 12.525C37.2559 11.925 37.4359 11.22 37.4359 9.945V3.495H35.9209V10.05C35.9209 11.64 35.4109 12.24 34.0609 12.24C32.7109 12.24 32.2009 11.64 32.2009 10.05V3.495H30.6859ZM40.987 12.12V3.495H39.472V13.5H46.102V12.12H40.987ZM52.653 10.62L53.373 13.5H54.903L52.173 3.495H50.283L47.538 13.5H49.053L49.758 10.62H52.653ZM52.308 9.24H50.118L51.198 4.905L52.308 9.24ZM58.349 9.345H59.564L61.844 13.5H63.584L60.974 9.03C62.249 8.745 62.969 7.8 62.969 6.405C62.969 5.43 62.624 4.68 61.934 4.125C61.379 3.66 60.719 3.495 59.534 3.495H56.834V13.5H58.349V9.345ZM58.349 7.965V4.875H59.459C60.899 4.875 61.454 5.28 61.454 6.36C61.454 7.515 60.899 7.965 59.474 7.965H58.349Z"
		fill="black"
		fill-opacity="0.5" />
</svg>
