<svg xmlns="http://www.w3.org/2000/svg" width="90" height="97" fill="none"><g clip-path="url(#a)"><mask id="b" fill="#fff"><path d="m43.157 5.29.051-.004A43.42 43.42 0 0 1 60.26 8.028a43.442 43.442 0 0 1 14.638 9.169 43.416 43.416 0 0 1 12.394 41.738 43.22 43.22 0 0 1-1.969 6.132 43.995 43.995 0 0 1-1.808 3.897 43.21 43.21 0 0 1-3.411 5.463 43.726 43.726 0 0 1-5.927 6.576 43.302 43.302 0 0 1-4.806 3.777 44.339 44.339 0 0 1-2.968 1.844 43.108 43.108 0 0 1-4.706 2.304 42.699 42.699 0 0 1-3.277 1.214 43.27 43.27 0 0 1-5.93 1.478c-1.835.32-3.721.551-5.585.604-2.105.056-4.19.032-6.286-.177a42.668 42.668 0 0 1-3.332-.468 43.91 43.91 0 0 1-4.098-.947 43.613 43.613 0 0 1-4.768-1.653 43.64 43.64 0 0 1-5.274-2.613 43.426 43.426 0 0 1-7.617-5.638 43.245 43.245 0 0 1-4.422-4.725 43.255 43.255 0 0 1-4.205-6.268 43.326 43.326 0 0 1-3.394-7.927 43.427 43.427 0 0 1 .043-26.234A43.421 43.421 0 0 1 13.57 18.72a43.403 43.403 0 0 1 7.635-6.358 43.954 43.954 0 0 1 3.908-2.279 43.62 43.62 0 0 1 8.418-3.284 43.332 43.332 0 0 1 3.527-.812c2.023-.377 4.047-.568 6.098-.696Z"/></mask><path stroke="#fff" stroke-width="1.503" d="m43.157 5.29.051-.004A43.42 43.42 0 0 1 60.26 8.028a43.442 43.442 0 0 1 14.638 9.169 43.416 43.416 0 0 1 12.394 41.738 43.22 43.22 0 0 1-1.969 6.132 43.995 43.995 0 0 1-1.808 3.897 43.21 43.21 0 0 1-3.411 5.463 43.726 43.726 0 0 1-5.927 6.576 43.302 43.302 0 0 1-4.806 3.777 44.339 44.339 0 0 1-2.968 1.844 43.108 43.108 0 0 1-4.706 2.304 42.699 42.699 0 0 1-3.277 1.214 43.27 43.27 0 0 1-5.93 1.478c-1.835.32-3.721.551-5.585.604-2.105.056-4.19.032-6.286-.177a42.668 42.668 0 0 1-3.332-.468 43.91 43.91 0 0 1-4.098-.947 43.613 43.613 0 0 1-4.768-1.653 43.64 43.64 0 0 1-5.274-2.613 43.426 43.426 0 0 1-7.617-5.638 43.245 43.245 0 0 1-4.422-4.725 43.255 43.255 0 0 1-4.205-6.268 43.326 43.326 0 0 1-3.394-7.927 43.427 43.427 0 0 1 .043-26.234A43.421 43.421 0 0 1 13.57 18.72a43.403 43.403 0 0 1 7.635-6.358 43.954 43.954 0 0 1 3.908-2.279 43.62 43.62 0 0 1 8.418-3.284 43.332 43.332 0 0 1 3.527-.812c2.023-.377 4.047-.568 6.098-.696Z" mask="url(#b)"/><path fill="#fff" fill-rule="evenodd" d="m42.536 11.545.072-.005c.134-.011.276-.023.406.002.252.049.593.184.744.397.02.124.011.142-.039.255l-.002.005c-.15.097-.33-.016-.511-.13-.122-.078-.246-.156-.363-.173a.511.511 0 0 0-.406.12.465.465 0 0 0-.13.385c.04.269.463.401.848.521.216.068.42.131.538.213.136.095.256.233.272.405.025.259-.114.584-.277.78-.212.254-.503.289-.813.316h-.009c-.032-.003-.065-.005-.097-.01-.31-.037-.604-.155-.793-.413-.087-.119-.193-.293-.167-.445a.392.392 0 0 1 .224-.094c.13.04.216.155.302.27.06.082.121.164.198.22a.67.67 0 0 0 .533.083c.148-.04.347-.144.412-.29a.522.522 0 0 0-.01-.437c-.113-.196-.443-.267-.713-.326a3.138 3.138 0 0 1-.235-.057c-.222-.068-.44-.185-.544-.402a.929.929 0 0 1-.017-.676c.103-.275.324-.398.577-.514Zm7.51.289a1.022 1.022 0 0 0-.329-.05c-.056.329-.104.662-.153.996-.097.667-.194 1.338-.351 1.981.19.032.383.068.576.103.445.082.893.165 1.337.208l.016-.076c.02-.091.04-.18.01-.27-.27-.088-.555-.128-.84-.168a6.655 6.655 0 0 1-.631-.11c.013-.086.042-.242.078-.438.134-.732.368-2.01.287-2.176Zm-10.05-.013-.122-.012-.332.037c-.147.317-.228.77-.277 1.116.073.017.145.033.218.047l.038-.065c.17-.289.502-.855.475-1.123ZM18.958 22.088c.16.138.31.307.455.472.061.07.122.138.182.204.395.429.793.854 1.196 1.275l1.116-1.045c.087.08.154.144.21.251-.037.114-.105.173-.185.244l-.06.054c-.278.27-.565.532-.852.793l-.274.25-2.074-2.223.286-.275Zm11.493 58.013c-.465-.221-.93-.442-1.402-.644l-.03.065c-.046.091-.072.146-.046.269.144.148.346.23.543.31.079.033.157.065.23.1-.046.097-.116.233-.198.392-.34.66-.889 1.723-.82 2.117l.077.048c.275-.132.4-.427.515-.701.02-.05.041-.099.062-.146.075-.159.148-.32.222-.48.163-.356.326-.713.505-1.059l.036.016c.155.07.309.14.458.222a.69.69 0 0 0 .29.086c.116-.044.122-.058.17-.166l.008-.018a.97.97 0 0 0 .033-.086l.005-.014c-.22-.102-.439-.207-.658-.31Zm36.326-4.48c.1.1.169.596.236 1.084.053.387.105.768.173.94.089.23.313.488.51.716.072.083.14.16.197.232l-.311.246c-.08-.102-.152-.198-.22-.29-.279-.377-.497-.673-1.005-.889a65.32 65.32 0 0 1-1.41-.65l.348-.26 1.462.697a34.431 34.431 0 0 0-.298-1.59l.318-.237Zm-33.9 5.497c-.17-.053-.338-.105-.497-.16l-.099.33.671.235c-.25.745-.51 1.487-.777 2.226a3.945 3.945 0 0 1-.124-.052c-.173-.075-.375-.162-.538-.13-.085.089-.087.103-.11.225.136.152.893.391 1.388.547l.34.11.022-.073c.03-.096.046-.148-.01-.265-.116-.09-.256-.13-.397-.17a2.034 2.034 0 0 1-.192-.059l.774-2.218.12.044c.192.073.491.186.585.14a.557.557 0 0 1 .02-.058c.025-.074.043-.123.016-.217-.355-.196-.78-.327-1.192-.455Zm31.188-64.41c.332.127.78.448 1.164.722.144.103.279.2.396.277l-.015.025c-.05.084-.09.15-.185.199-.17-.015-.336-.14-.485-.253a4.163 4.163 0 0 0-.115-.085l-1.291 1.96c.06.05.131.092.2.133.152.09.301.177.348.356l-.117.181-.04.006a11.77 11.77 0 0 0-.314-.185c-.395-.23-.899-.52-1.084-.778-.06-.083-.057-.102-.044-.191l.002-.011.092-.055c.176.015.35.139.505.25l.112.08c.333-.446.635-.926.935-1.403.119-.19.238-.378.358-.564a2.671 2.671 0 0 0-.171-.103c-.136-.076-.27-.152-.363-.278-.014-.115.016-.155.07-.226l.042-.057Zm-6.173 64.156-.036-.01c-.312.102-.39.186-.536.473a6.568 6.568 0 0 0-.267.631c-.072.19-.145.38-.232.562l-.115-.301v-.001l-.001-.001v-.001a14.412 14.412 0 0 0-.319-.793l-.354.112.095.276v.001c.256.748.814 2.382 1.045 2.564l.099.007c.097-.09.142-.169.141-.306 0-.096-.056-.205-.108-.309a1.516 1.516 0 0 1-.073-.156l-.286-.756.558.31c.381.21.762.422 1.138.64l.494-.174a92.705 92.705 0 0 1-1.923-1.076 8.1 8.1 0 0 1 .11-.242l.001-.004c.21-.459.6-1.308.569-1.446Zm-21.145 1.453c-.253-.128-.51-.14-.787-.127-.234.11-.571.337-.642.608-.053.2.004.392.114.561.113.174.361.342.6.503.3.203.584.395.552.571a.594.594 0 0 1-.276.408c-.145.092-.297.148-.47.11-.188-.043-.336-.255-.416-.416a1.763 1.763 0 0 1-.054-.13c-.053-.134-.115-.293-.215-.343l-.248.037c-.064.12-.055.251-.011.382.105.31.318.563.623.687.104.042.214.072.322.1l.011.004c.347.017.584 0 .859-.237a.78.78 0 0 0 .284-.574.788.788 0 0 0-.218-.594c-.1-.1-.255-.18-.414-.263-.279-.144-.57-.295-.61-.571a.414.414 0 0 1 .087-.307c.111-.136.324-.185.493-.177a.38.38 0 0 1 .25.108.77.77 0 0 1 .155.228c.066.13.126.248.335.29l.08-.022c.063-.117.07-.2.034-.33a.846.846 0 0 0-.438-.506Zm16.587-69.921c.148.043.34.085.546.131.464.104 1 .223 1.267.395.047.03.049.054.051.094 0 .011.002.024.004.04l-.02.035a.174.174 0 0 1-.067.076c-.177.12-.858-.1-1.26-.23a6.848 6.848 0 0 0-.227-.071l-.238.824c.117.035.245.062.376.09.297.06.605.125.825.302.056.114.057.12.036.245-.158.087-.482-.016-.786-.112-.197-.062-.386-.121-.515-.125l-.057.078c-.085.302-.164.605-.237.91.106.031.24.06.386.09.403.085.888.187 1.088.428.035.042.035.044.03.078l-.003.043-.019.012a.148.148 0 0 1-.038.023c-.243.1-1.1-.158-1.624-.316a12.31 12.31 0 0 0-.318-.093c.274-.98.541-1.963.8-2.947Zm7.622 67.045a.177.177 0 0 1-.014-.006c-.181.09-.364.179-.546.267a30.8 30.8 0 0 0-1.149.577l1.353 2.723c.187-.093.376-.184.564-.275.41-.198.82-.396 1.22-.607a1.439 1.439 0 0 1-.02-.037l-.018-.035c-.05-.094-.083-.158-.2-.21-.131.017-.248.086-.364.155a2.518 2.518 0 0 1-.141.08l-.853.414a18.306 18.306 0 0 0-.13-.252v-.001a6.975 6.975 0 0 1-.326-.688l1.179-.589-.18-.341-1.179.594-.376-.773c.09-.045.207-.095.334-.149.365-.155.818-.348.987-.578-.01-.115-.023-.17-.114-.255a.06.06 0 0 0-.02-.01l-.007-.004Zm8.935-57.851c.056-.005.112-.008.168-.01a1.138 1.138 0 0 1 .582.139 1.2 1.2 0 0 1 .288.22c.231.24.351.575.339.908a.582.582 0 0 1-.213.459c-.098.01-.177-.032-.26-.078a1.825 1.825 0 0 0-.07-.036l.044-.116c.093-.263.125-.47-.008-.727a.678.678 0 0 0-.438-.352c-.254-.065-.52.015-.736.154-.337.216-.752.654-.823 1.057a.67.67 0 0 0 .133.545.821.821 0 0 0 .576.297c.21.015.386-.088.533-.227l.025-.081-.442-.442.249-.287c.256.257.517.51.782.76l-.01.01c-.306.354-.65.75-1.021 1.032h-.004c-.11.02-.12.021-.223-.026a.426.426 0 0 1 .046-.237c.014-.036.03-.074.042-.118l-.028-.007a2.647 2.647 0 0 1-.341-.101c-.292-.116-.559-.343-.669-.643-.11-.298-.038-.624.093-.903.283-.602.767-.978 1.386-1.19Zm-30.2 61.313h-.002l-.02-.002-.027-.002-.892 1.696c-.049.092-.1.185-.153.279-.153.274-.309.553-.407.844.056.063.121.067.197.072.02 0 .043.002.066.005.203-.081.323-.37.418-.598.022-.052.042-.1.062-.143l.534.086.086.011.084.01c.155.02.311.04.466.067.005.04.01.088.014.14.02.23.048.537.199.657.061.05.129.062.203.075l.02.004.07-.024c.03-.388-.468-2.636-.61-3.075-.095-.082-.194-.091-.309-.102Zm18.135-69.148.361.132c-.014.332-.014.707-.013 1.092 0 .7 0 1.435-.085 2.009l-.003.02c-.001.013-.002.02-.005.024s-.008.007-.016.012a.476.476 0 0 0-.038.025l-.035-.009c-.069-.017-.125-.03-.182-.083-.114-.107-.085-.471-.066-.71a3.75 3.75 0 0 0 .01-.147l-.926-.35-.044-.015a.152.152 0 0 0-.026-.01.211.211 0 0 0-.052.001h-.008c-.124.008-.341.294-.487.486a2.54 2.54 0 0 1-.102.132l-.385-.142c.481-.547.951-1.104 1.421-1.662l.68-.805Zm-2.456 70.74c-.49-.733-1.489-2.228-1.63-2.297l-.07.021c-.095.027-.209.059-.245.137-.081.177-.282 2.915-.223 3.106a.438.438 0 0 0 .287-.052c.118-.141.115-.461.112-.7v-.148l.29-.08v-.001h.001c.227-.064.455-.129.683-.187l.044-.004c.074-.009.106-.013.18.05a.934.934 0 0 1 .166.241c.094.171.192.351.385.337.066-.005.138-.026.205-.045l.057-.017c-.042-.061-.129-.19-.242-.36Zm-31.398-8.324c.08.066.163.127.246.19l.048.035c-.14.44-.267.886-.395 1.33l-.186.643c-.026.086-.05.174-.073.263-.075.278-.152.565-.283.81a.64.64 0 0 1-.265-.142l-.056-.041c.065-.197.126-.395.186-.594v-.002l.07-.227-.442-.32-.505-.364-.687.494a4.133 4.133 0 0 1-.252-.19h-.001l-.035-.028-.045-.035 2.675-1.822Zm18.764 7.094-.4-.034c-.099.537-.185 2.523-.11 3.017.08.05.11.048.192.046h.034l.021-.013c.069-.044.102-.064.12-.162.073-.398.072-1.652.071-2.12a26 26 0 0 1 .278.57c.316.657.776 1.613.897 1.726.026.024.093.05.12.055.067.016.15.015.226.014h.076c.01-.205.026-.442.044-.695.054-.777.118-1.702.045-2.294-.08-.064-.131-.061-.213-.056l-.041.002h-.024a.179.179 0 0 1-.025.022c-.017.014-.035.028-.045.048-.054.103-.08 1.225-.095 1.847-.004.172-.007.306-.01.37a212.45 212.45 0 0 0-1.161-2.343Zm-5.64-70.975c.108.022.11.023.184.104.044.23.139.576.24.951.192.703.412 1.51.387 1.861a.41.41 0 0 1-.258.099.573.573 0 0 1-.132-.015c-.117-.047-.948-.992-1.424-1.534-.14-.16-.25-.284-.301-.34.099.434.205.867.311 1.3.07.284.14.57.208.855-.058.088-.109.106-.19.133l-.06.02-.053.002c-.176-.12-.688-2.537-.768-2.941l.391-.11a183.23 183.23 0 0 1 1.775 1.944c-.024-.1-.072-.273-.129-.48-.172-.62-.429-1.544-.368-1.757l.187-.091Zm30.281 6.63a1.399 1.399 0 0 0-.278-.19l-.59.732-.001.001c-.435.539-.869 1.077-1.293 1.621l.293.249c.479-.58.954-1.164 1.424-1.751-.058.611-.178 1.225-.298 1.835-.046.24-.093.479-.136.717l.067.053c.088.072.194.16.286.16l.023-.015c.186-.23.377-.459.57-.688.444-.534.894-1.072 1.289-1.63l-.312-.244-.307.39c-.37.474-.743.949-1.143 1.394.11-.497.198-1 .288-1.502.063-.357.126-.714.197-1.07l-.079-.062Zm-41.13-2.364c.13.06.983 1.554 1.391 2.27l.19.33-.357.221-2.25-1.335 1.153 1.972a2.341 2.341 0 0 1-.238.137l-.09.049c-.22-.236-.712-1.108-1.107-1.809-.186-.33-.35-.622-.456-.792.095-.056.191-.11.288-.163l.101-.056c.739.452 1.483.896 2.232 1.332-.12-.206-.247-.41-.375-.617-.267-.43-.536-.865-.75-1.316.05-.098.119-.137.204-.185l.064-.038ZM41.534 31.49l-3.258.001-.003.548 1.332.002v3.847l.565-.001-.001-1.407v-2.44l1.363-.004.002-.545Zm1.852 29.728 3.253.006.003.527-1.336.001-.001 2.515v1.345l-.577-.001v-3.857l-1.35-.001.008-.535Zm18.653.013-.617-.017a93.92 93.92 0 0 1-1.064 2.089l-1.068-2.084-.554.001c-.03.207.324.816.671 1.415.285.491.566.976.629 1.226.096.383.076.853.057 1.291-.006.16-.013.315-.014.46l.563.001a44.63 44.63 0 0 0-.008-.471c-.02-1.035-.025-1.25.622-2.425l.783-1.486ZM26.492 77.948c.32.172.663.356.898.596.144.146.245.328.236.539a.985.985 0 0 1-.303.627c-.218.2-.483.18-.755.16h-.011c0 .142 0 .287-.002.433a9.96 9.96 0 0 0 .038 1.249l-.383-.222a25.096 25.096 0 0 0-.026-.618v-.001l-.014-.275c0-.275-.013-.543-.037-.816l-.404-.227-.736 1.23a1.169 1.169 0 0 1-.297-.22c.126-.373.727-1.34 1.158-2.034v-.001c.146-.234.272-.437.354-.575.089.05.183.101.28.153h.001v.001h.002v.001Zm37.668.203a.841.841 0 0 0-.537-.164c-.334.093-.612.27-.893.45a6.694 6.694 0 0 1-.478.285c.374.617.757 1.23 1.146 1.838.047.074.091.15.135.227.097.168.194.335.323.481.105.003.12-.007.203-.059l.013-.008c.046-.097.07-.151.03-.257-.08-.21-.238-.433-.388-.646a5.88 5.88 0 0 1-.22-.325l-.014-.078c.109-.102.228-.172.355-.247l.018-.01c.512.24 1.02.486 1.526.739l.381-.24a42.114 42.114 0 0 0-1.518-.76c.161-.21.264-.371.236-.644a.785.785 0 0 0-.317-.582ZM30.157 61.22h.003l.866.003.003.528-2.183.002v1.295c.162 0 .326-.003.492-.006.447-.008.9-.016 1.337.027.05.1.045.236.04.358a2.88 2.88 0 0 0-.002.084l-.023.047c-.212.077-.957.054-1.464.039a15.609 15.609 0 0 0-.38-.01l-.002 2.026-.564-.001c0-.106-.003-.32-.007-.598-.017-1.199-.05-3.599.047-3.795.608-.006 1.218-.003 1.826 0h.01Zm10.609.106c-.233-.113-.48-.14-.735-.153-.535.053-.954.197-1.301.635-.455.573-.534 1.405-.438 2.11.075.545.305 1.078.757 1.415.372.277.844.363 1.298.29.43-.069.76-.283 1.004-.643.136-.2.228-.423.303-.65a5.094 5.094 0 0 0-.542-.17 2.85 2.85 0 0 1-.318.64c-.24.21-.5.354-.831.338-.295-.015-.559-.183-.743-.406-.388-.472-.422-1.22-.347-1.805.05-.381.188-.772.51-1.007a1.18 1.18 0 0 1 .907-.186c.278.056.474.232.62.468.083.135.14.283.196.43l.009.025.077-.02a3.91 3.91 0 0 0 .46-.136c-.173-.494-.39-.935-.886-1.175Zm9.747 21.561c.199-.008.388.021.567.114.39.202.268.62.185.906-.037.124-.065.223-.041.268.029.054.085.09.15.131a.765.765 0 0 1 .39.535.748.748 0 0 1-.116.614c-.24.342-.565.414-.948.485l-.86.13c-.175-.709-.283-1.457-.389-2.194-.039-.271-.078-.54-.12-.806.237-.031.474-.07.71-.108.157-.025.314-.051.472-.075Zm10.779-67.668c-.191-.098-.406-.209-.607-.272-.188.373-.373.749-.558 1.124-.26.529-.521 1.057-.79 1.581l.085.045c.49.26.889.471 1.474.454a1.678 1.678 0 0 0 1.008-.842c.195-.36.3-.826.18-1.227-.112-.378-.417-.67-.761-.847l-.031-.016Zm-32.302-.07h.032c.153-.01.321-.02.469.017.418.103.751.435.95.805.205.381.319.877.175 1.298-.171.501-.588.715-1.037.922l-.387.175a55.624 55.624 0 0 0-.769-1.67 84.44 84.44 0 0 1-.51-1.09l.007-.003c.342-.17.701-.35 1.07-.453Zm22.547 16.34-2.768.003-.007 4.396 2.822-.001-.001-.542-2.284-.008-.001-1.404.03-.089c.296-.085.928-.062 1.43-.043.177.006.337.012.462.013l-.001-.526h-.605c-.439 0-.877 0-1.314-.01V32.04l2.236-.003v-.548ZM22.44 19.14c.185-.021.369-.04.551.007.51.132.938.567 1.185 1.02.186.341.294.76.162 1.138-.129.37-.4.551-.741.706l-.073.006c-.157.012-.321.024-.472-.015-.51-.132-.928-.559-1.18-1.008-.189-.338-.304-.752-.177-1.131.126-.375.401-.565.745-.723Zm10.808-5.474c-.191-.092-.363-.104-.572-.102-.368.098-.64.23-.83.575-.215.39-.17.874-.041 1.285.142.451.412.9.851 1.112.204.098.405.118.627.096.351-.117.618-.25.795-.597.21-.415.15-.913 0-1.338-.149-.425-.412-.83-.83-1.03Zm12.714 17.826.57-.002c0 .16.005.46.011.832v.001c.019 1.228.05 3.236-.035 3.538l-.16.044-.03-.001-.026-.001c-.11-.004-.214-.008-.312-.066-.063-.46-.047-.961-.031-1.448.006-.194.012-.387.013-.574H44.07v2.07l-.572.002.004-4.396h.568v1.79l1.891.004.001-1.793ZM35.048 61.215h-.523a66.289 66.289 0 0 0-1.112 3.06c-.153.447-.307.892-.464 1.335l.59.004.379-1.161 1.16-.001h.551l.402 1.16.577-.002c-.167-.467-.337-.934-.508-1.401v-.003h-.001v-.002a85.032 85.032 0 0 1-1.05-2.989Zm18.825.001c.14 0 .29-.007.448-.014.565-.024 1.21-.05 1.676.143.244.102.436.28.535.527.124.31.13.772-.017 1.074-.158.323-.461.453-.78.565.214.362.436.719.658 1.075.212.34.424.68.628 1.024h-.658l-.263-.42-1.01-1.639-.716-.001-.001 2.062-.567-.002-.002-2.932c0-.127-.005-.26-.01-.397-.011-.353-.024-.726.037-1.044l.05.029-.033-.054.025.004Zm-2.813.257c-.307-.226-.613-.279-.981-.301-.488.056-.865.19-1.182.59-.467.591-.543 1.471-.441 2.193.074.526.287 1.063.723 1.392.29.22.659.315 1.021.299.487-.056.854-.202 1.166-.604.451-.583.536-1.447.433-2.157-.078-.538-.289-1.08-.74-1.412ZM40.384 41.84l7.489.002.002 1.8h-5.623c-.008.753-.005 1.506-.003 2.259l.003 1.087 4.302.001v1.8h-4.3c-.007.453-.006.907-.004 1.36 0 .217.002.434.001.65v2.354l5.8.003.001 1.796-7.67-.002.002-13.11Zm17.303 0-1.311-.001a767.177 767.177 0 0 0-2.025 4.913c-1.121 2.74-2.243 5.478-3.416 8.192l1.97.01 1.361-3.367h5.511c.143.35.298.709.454 1.07.33.764.667 1.543.92 2.294l1.97-.001-5.434-13.11Zm-30.605 0 3.305-.001c.16 0 .323-.002.486-.005.56-.007 1.131-.015 1.674.068.435.066.86.196 1.242.414a3.48 3.48 0 0 1 .909.763 3.4 3.4 0 0 1 .595 1.026 3.4 3.4 0 0 1 .142.492 3.366 3.366 0 0 1 .073.854 3.508 3.508 0 0 1-.253 1.17 3.66 3.66 0 0 1-.23.461c-.536.901-1.327 1.38-2.322 1.634l4.678 6.234-2.293-.003a16.67 16.67 0 0 0-.296-.403l-.145-.194-4.192-5.56h-1.501l-.002 6.163-1.873-.002.003-13.11Zm-10.088-.001-2.739.002-.002 13.108 3.261.004c.209 0 .42.004.63.007h.001c1.556.026 3.142.052 4.329-1.14.166-.167.312-.347.452-.537.59-.941.862-1.953.607-3.056-.28-1.208-1.007-1.983-2.023-2.635.647-.761 1.067-1.564.987-2.59a3.135 3.135 0 0 0-.074-.5 3.388 3.388 0 0 0-.756-1.484 3.431 3.431 0 0 0-.36-.354c-1.053-.88-2.43-.856-3.739-.833-.193.004-.385.007-.574.008Zm49.58.002 2.934-.003c2.212 0 4.283.087 6.004 1.659 1.315 1.2 2.047 2.926 2.111 4.694.067 1.838-.617 3.543-1.858 4.882l-.06.06c-1.759 1.733-3.778 1.823-6.106 1.82l-3.028-.005.002-13.107ZM32.711 13.95a.845.845 0 0 1 .351.056c.303.138.518.512.627.81.12.326.198.75.027 1.073-.119.225-.29.3-.524.365a.79.79 0 0 1-.4-.088c-.327-.19-.529-.598-.628-.947-.087-.304-.127-.676.05-.957.123-.195.281-.258.496-.313Zm25.081.41c.063.301.026.682-.008 1.028-.01.113-.02.221-.027.322l-.594-.223-.054-.021c-.063-.023-.12-.045-.156-.107.271-.34.551-.673.84-.999ZM39.721 83.506c.112.128.2.725.254 1.094l.035.228-.448-.062a19.18 19.18 0 0 1-.433-.07l.593-1.19Zm14.738.406c-.042-.272-.518-.918-.731-1.103a9.449 9.449 0 0 0-.048.702c-.01.215-.019.429-.041.642l.702-.187.118-.054Zm-30.74-7.135.033.046c-.06.312-.165.622-.268.928-.036.103-.07.206-.103.308l-.4-.297-.325-.25 1.063-.735Zm3.418 2.092c-.15-.226-.533-.45-.79-.53l-.426.715.146.091c.245.154.495.31.774.383.149-.085.294-.168.351-.34a.355.355 0 0 0-.055-.319Zm36.491-.51a.69.69 0 0 1 .413.222.29.29 0 0 1 .05.249c-.082.306-.443.51-.72.668l-.052.029-.028.016-.031.018a7.188 7.188 0 0 1-.456-.718c.27-.175.536-.34.824-.484Zm-13.42 4.95a1.265 1.265 0 0 1-.063.009l-.036.005c-.11.013-.179.022-.278.112-.044.143-.028.215.003.358v.003l.023.1c.024.11.049.22.068.329l.05-.008h.001c.22-.033.44-.065.657-.113.136-.047.273-.114.342-.251a.329.329 0 0 0-.006-.29.57.57 0 0 0-.318-.262c-.112-.03-.258-.013-.384.002l-.059.007Zm.544 1.165c.144-.01.26.005.386.078.1.06.17.155.199.268a.642.642 0 0 1-.11.494c-.122.174-.315.205-.509.236l-.056.01c-.13.024-.261.041-.392.058l-.036.005-.08.01-.18-1.031c.18-.034.36-.063.542-.09v-.001h.001l.235-.037Zm10.151-69.008-.026-.01-1.019 2.026c.296.158.549.287.89.314a1.49 1.49 0 0 0 .858-.852c.113-.273.166-.585.05-.866-.127-.306-.411-.483-.711-.597a1.223 1.223 0 0 0-.025-.01l-.017-.005Zm-31.7.027c.05.01.099.02.147.034.318.09.581.373.732.657.153.288.241.648.137.966-.12.365-.389.502-.707.664l-.003.002a.24.24 0 0 1-.103-.02l-.022-.007c-.283-.416-.559-1.082-.787-1.633l-.158-.377a4.62 4.62 0 0 1 .764-.286Zm-6.326 4.018a1.094 1.094 0 0 0-.236-.04c-.246.107-.456.203-.55.472-.098.28-.016.575.12.825.187.344.56.76.949.872.094.027.2.034.298.03.216-.111.416-.222.5-.464.093-.261.024-.538-.097-.777-.196-.387-.56-.786-.984-.918Zm12.39 43.843c-.141-.466-.288-.95-.495-1.355-.217.634-.438 1.267-.663 1.898l.677.003.651-.002a19.726 19.726 0 0 1-.17-.544Zm19.354-1.61c.394-.016.853-.034 1.177.138.13.069.216.162.256.307.057.212-.05.457-.153.637-.307.234-.83.206-1.262.182a8.62 8.62 0 0 0-.266-.012v-1.245c.079 0 .162-.004.248-.007Zm-4.12.038c-.185-.078-.393-.072-.59-.064-.358.126-.556.284-.723.633-.266.554-.269 1.46-.042 2.028.12.299.339.56.644.68.167.064.365.053.541.044h.011c.356-.128.547-.277.716-.623.266-.544.27-1.432.062-1.998-.11-.298-.32-.575-.62-.7Zm6.51-16.775c.27.338 1.76 4.109 2.007 4.775h-3.982a82.579 82.579 0 0 1 1.34-3.271v-.001c.213-.502.426-1.002.634-1.503Zm-27.317-1.379c-.278.007-.532.014-.74.015v3.346c.202 0 .443.007.707.014.96.024 2.21.057 2.867-.14a1.64 1.64 0 0 0 .62-.353c.317-.4.534-.833.48-1.36a1.655 1.655 0 0 0-.623-1.142 1.765 1.765 0 0 0-.711-.307c-.597-.126-1.717-.096-2.6-.073Zm-12.95 0c1.103-.036 2.709-.089 3.358.475.328.285.467.658.496 1.084.039.56-.143.936-.504 1.345a1.722 1.722 0 0 1-.58.322c-.659.202-1.79.172-2.69.148a30.325 30.325 0 0 0-.677-.013c-.004-1.116-.003-2.231.003-3.347.17 0 .372-.007.594-.014Zm1.334 5.157-1.931.005-.001 4.364c.225 0 .502.007.806.013 1.067.024 2.471.055 3.154-.12a2.27 2.27 0 0 0 .978-.516c.436-.478.687-1.017.65-1.678-.033-.577-.27-1.12-.717-1.498-.71-.602-1.692-.587-2.587-.574l-.352.004Zm50.39-5.143c.238 0 .483-.005.73-.01 1.728-.031 3.606-.066 4.958 1.116.945.826 1.493 2.061 1.569 3.305.089 1.444-.376 2.691-1.324 3.77l-.025.026c-1.386 1.377-3.319 1.345-5.15 1.314-.257-.004-.511-.008-.762-.009l.003-9.512Z" clip-rule="evenodd"/></g><defs><clipPath id="a"><path fill="#fff" d="M1.5 5.25h87v87h-87z"/></clipPath></defs></svg>